<?xml version="1.0" standalone="no"?>
<!DOCTYPE svg PUBLIC "-//W3C//DTD SVG 20010904//EN"
 "http://www.w3.org/TR/2001/REC-SVG-20010904/DTD/svg10.dtd">
<svg version="1.0" xmlns="http://www.w3.org/2000/svg"
 width="1024.000000pt" height="1024.000000pt" viewBox="0 0 1024.000000 1024.000000"
 preserveAspectRatio="xMidYMid meet">
<metadata>
Created by potrace 1.16, written by Peter Selinger 2001-2019
</metadata>
<g transform="translate(0.000000,1024.000000) scale(0.100000,-0.100000)"
fill="#000000" stroke="none">
<path d="M5078 8653 c7 -3 16 -2 19 1 4 3 -2 6 -13 5 -11 0 -14 -3 -6 -6z"/>
<path d="M5137 8649 c7 -7 15 -10 18 -7 3 3 -2 9 -12 12 -14 6 -15 5 -6 -5z"/>
<path d="M4887 8643 c18 -2 50 -2 70 0 21 2 7 4 -32 4 -38 0 -55 -2 -38 -4z"/>
<path d="M4773 8633 c9 -2 25 -2 35 0 9 3 1 5 -18 5 -19 0 -27 -2 -17 -5z"/>
<path d="M4683 8623 c9 -2 23 -2 30 0 6 3 -1 5 -18 5 -16 0 -22 -2 -12 -5z"/>
<path d="M4608 8613 c6 -2 18 -2 25 0 6 3 1 5 -13 5 -14 0 -19 -2 -12 -5z"/>
<path d="M5170 8286 l0 -324 -37 9 c-46 10 -300 -5 -431 -26 -407 -65 -742
-197 -1092 -430 -581 -387 -1010 -1025 -1150 -1713 -40 -201 -53 -339 -53
-572 0 -242 13 -379 59 -614 15 -72 28 -144 31 -161 3 -16 10 -36 15 -42 6 -7
7 -13 3 -13 -4 0 -3 -6 2 -12 10 -12 57 -147 56 -158 -1 -3 4 -14 10 -25 6
-11 12 -22 13 -25 0 -3 4 -12 7 -20 4 -8 9 -28 11 -45 3 -16 12 -35 21 -41 8
-6 15 -17 15 -24 0 -10 -3 -10 -14 -1 -18 15 -34 -5 -17 -22 9 -9 10 -7 5 7
-7 19 -7 19 18 0 15 -10 22 -20 17 -22 -5 -2 -9 -8 -9 -13 0 -6 5 -7 12 -3 7
4 8 3 4 -4 -4 -7 -4 -17 0 -23 4 -8 9 -7 15 2 6 10 9 10 9 2 0 -16 -17 -26
-25 -13 -3 5 -10 10 -16 10 -5 0 1 -15 13 -34 22 -34 32 -38 57 -22 9 6 12 5
7 -2 -3 -5 0 -13 6 -16 9 -4 8 -5 -2 -5 -35 3 -41 -1 -36 -23 3 -13 3 -17 0
-10 -6 13 -45 17 -43 5 1 -5 0 -19 -1 -33 l-2 -25 -8 25 c-8 26 -10 23 -14
-22 -2 -22 0 -25 10 -17 9 8 12 6 9 -8 -1 -10 -8 -17 -16 -15 -9 2 -9 -1 1
-15 8 -10 10 -14 5 -10 -5 5 -14 -8 -20 -30 -7 -21 -16 -37 -21 -36 -6 1 -11
-8 -11 -20 -2 -15 0 -18 6 -8 6 9 11 5 19 -17 6 -17 8 -33 5 -36 -4 -3 -1 -6
7 -6 10 0 10 -3 -1 -17 -8 -9 -14 -23 -14 -32 0 -9 -4 -22 -9 -30 -7 -10 -6
-12 4 -6 8 5 11 3 8 -6 -3 -8 -10 -13 -15 -12 -5 1 -10 -4 -10 -12 0 -8 5 -13
11 -12 6 1 10 -8 8 -20 -3 -18 1 -22 15 -17 17 5 17 5 1 -6 -19 -12 -25 -40
-8 -40 6 0 10 -5 10 -11 0 -5 -5 -7 -11 -3 -7 4 -9 -5 -6 -30 3 -20 1 -36 -4
-36 -13 0 -11 -34 4 -49 9 -11 9 -13 0 -7 -17 9 -17 -6 0 -23 9 -11 9 -13 0
-7 -9 5 -13 -1 -14 -21 0 -15 -3 -23 -5 -16 -8 19 -34 3 -34 -21 0 -17 -2 -18
-10 -6 -9 13 -11 13 -20 0 -8 -13 -10 -12 -10 3 0 9 -5 17 -11 17 -6 0 -8 -7
-5 -16 3 -9 2 -12 -5 -9 -5 4 -7 15 -4 26 4 13 2 19 -9 19 -9 0 -16 5 -16 11
0 5 -5 7 -10 4 -6 -3 -13 1 -16 9 -3 9 -10 13 -15 10 -8 -5 -13 10 -10 29 1 5
-3 6 -8 3 -10 -6 -44 41 -44 60 0 7 -11 10 -26 8 -14 -3 -32 -5 -39 -6 -7 -1
-11 -6 -9 -12 3 -6 9 -10 15 -9 5 1 9 -5 8 -15 0 -9 4 -17 11 -17 6 0 15 -4
20 -9 5 -5 2 -6 -6 -1 -9 5 -12 3 -9 -6 3 -8 10 -14 16 -14 6 0 17 -7 24 -15
11 -12 11 -12 -4 -1 -24 18 -23 6 3 -30 11 -16 24 -27 29 -24 5 3 11 1 15 -5
4 -6 11 -7 17 -4 7 4 8 2 4 -5 -6 -9 -11 -9 -22 0 -8 7 -14 7 -14 1 0 -5 7
-15 15 -22 8 -7 15 -9 15 -5 0 4 6 2 13 -4 8 -6 18 -7 22 -3 5 4 5 1 1 -6 -6
-10 -11 -10 -22 -1 -23 19 -16 -6 8 -27 13 -12 18 -13 13 -4 -5 9 0 8 13 -4
25 -21 31 -36 7 -16 -24 20 -17 -5 7 -26 13 -12 18 -13 13 -4 -5 9 0 8 13 -4
25 -21 31 -36 7 -16 -23 19 -18 -4 5 -25 11 -10 20 -14 20 -10 0 4 8 1 18 -8
10 -10 21 -15 24 -12 2 3 5 -2 5 -10 0 -12 -6 -10 -24 7 -13 12 -23 18 -23 15
0 -11 180 -201 193 -206 7 -2 -19 30 -58 70 -38 40 -61 66 -49 56 11 -9 24
-14 29 -10 4 5 5 3 2 -3 -7 -12 145 -168 156 -159 4 3 5 2 2 -2 -3 -3 3 -16
12 -27 10 -12 3 -8 -15 8 -17 17 -32 27 -32 23 0 -8 99 -101 113 -106 7 -2 3
7 -8 20 -14 18 -11 16 12 -5 18 -16 30 -33 27 -37 -13 -21 413 -328 436 -314
6 3 9 1 8 -5 -4 -14 223 -142 240 -135 7 3 11 1 8 -4 -5 -8 114 -67 234 -116
246 -100 545 -181 800 -216 377 -52 880 -29 1215 56 55 14 127 32 160 41 220
55 550 193 780 325 613 351 1134 932 1419 1581 147 333 227 620 277 996 31
230 31 621 0 855 -12 93 -30 210 -41 261 -154 749 -553 1427 -1140 1937 -47
41 -86 77 -88 82 -2 4 -14 7 -26 7 -14 0 -49 -29 -105 -87 -46 -49 -171 -176
-278 -285 -129 -129 -193 -201 -188 -209 5 -8 4 -10 -3 -5 -21 13 -13 -10 11
-32 25 -24 43 -29 31 -10 -5 7 -3 8 5 4 7 -5 10 -11 7 -14 -7 -7 34 -52 47
-52 5 0 3 8 -4 18 -11 14 -10 14 8 -2 13 -10 21 -22 18 -26 -8 -13 82 -93 96
-85 7 5 10 4 5 -3 -8 -14 22 -44 36 -36 6 4 8 2 5 -3 -8 -13 27 -46 38 -36 4
5 5 2 1 -4 -8 -14 91 -126 104 -118 4 3 14 -3 21 -12 10 -12 10 -14 2 -9 -22
13 -14 -4 23 -50 20 -24 40 -42 44 -39 5 3 12 0 16 -6 4 -8 3 -9 -4 -5 -7 4
-12 3 -12 -3 0 -10 19 -26 32 -26 3 0 10 -4 15 -9 5 -5 3 -6 -4 -2 -7 4 -13 3
-13 -2 0 -13 25 -33 32 -26 3 3 5 -3 4 -13 0 -9 4 -18 11 -18 6 0 15 -4 20 -9
5 -5 2 -6 -6 -1 -9 5 -12 3 -9 -6 3 -8 10 -14 16 -14 5 0 14 -4 19 -9 5 -5 2
-6 -6 -1 -9 5 -12 3 -9 -6 3 -8 11 -13 17 -11 7 1 10 -2 7 -7 -9 -14 34 -82
47 -74 6 3 7 1 3 -5 -10 -16 12 -54 26 -46 7 4 8 3 4 -4 -9 -14 108 -245 119
-235 4 5 5 2 1 -5 -5 -7 -2 -27 5 -43 9 -23 14 -27 21 -17 7 9 8 8 4 -5 -8
-25 75 -270 87 -254 6 7 7 3 3 -13 -7 -31 24 -166 34 -150 6 9 9 9 13 -1 3 -8
6 -4 6 9 1 13 5 21 10 17 6 -3 8 -14 6 -24 -2 -10 3 -18 11 -18 9 0 12 8 9 25
-3 16 4 32 20 48 14 14 24 27 24 30 0 3 2 8 5 10 3 2 4 1 2 -2 -2 -3 2 -17 10
-32 12 -24 12 -28 -4 -34 -16 -6 -16 -7 0 -7 11 -1 20 -12 24 -28 3 -16 10
-44 15 -63 5 -19 9 -50 9 -68 0 -18 4 -41 9 -51 5 -9 12 -48 16 -86 3 -38 8
-72 11 -76 8 -13 7 -468 -1 -534 -41 -349 -137 -670 -293 -990 -24 -49 -48
-93 -54 -96 -5 -3 -10 -10 -10 -15 0 -5 -2 -13 -3 -19 -11 -37 -14 -33 -11 22
2 35 -1 60 -5 57 -11 -6 -11 24 0 51 5 11 4 31 -1 44 -6 18 -4 29 8 42 10 11
12 19 6 19 -7 0 -12 -6 -12 -12 0 -7 -5 -5 -11 5 -6 10 -8 21 -5 24 3 4 6 2 6
-4 0 -6 9 -9 19 -6 12 3 17 11 14 19 -3 9 0 14 8 12 9 -2 13 5 11 19 -2 12 2
25 9 29 8 5 10 3 4 -7 -5 -8 -4 -11 1 -6 5 5 9 19 9 30 0 13 6 21 13 19 10 -2
11 2 4 15 -7 12 -5 24 5 39 8 13 11 29 7 35 -5 8 -2 10 8 7 8 -4 15 0 15 8 0
7 -4 11 -9 8 -4 -3 -8 2 -8 11 0 9 4 14 9 10 12 -7 25 31 16 45 -3 5 -1 10 5
10 6 0 8 5 5 10 -4 6 -11 7 -17 4 -8 -5 -9 -1 -5 10 4 10 7 23 7 29 0 6 7 2
16 -9 15 -18 15 -18 4 3 -6 13 -8 34 -4 48 5 22 9 24 22 13 12 -10 14 -10 8 0
-4 7 -2 12 6 12 8 0 6 5 -4 11 -10 5 -18 15 -18 20 0 6 5 7 10 4 7 -4 8 3 4
21 -5 21 -4 25 6 19 10 -6 11 -2 6 19 -4 15 -3 25 2 22 4 -2 13 8 19 25 7 17
7 31 2 35 -5 3 -9 12 -9 20 0 9 5 12 11 8 8 -4 9 0 4 15 -3 11 -3 26 1 33 4 6
9 36 10 66 3 54 13 78 21 55 8 -22 18 -14 18 12 0 14 -6 25 -12 25 -8 0 -13
13 -13 32 0 30 1 31 15 12 13 -17 14 -16 5 16 -6 19 -11 55 -11 80 -1 25 -7
-7 -14 -70 -12 -117 -16 -141 -41 -265 -35 -180 -102 -390 -171 -537 l-46 -98
-581 0 c-627 0 -652 2 -754 54 -78 40 -145 123 -175 216 -59 183 -60 205 -66
1375 l-6 1069 -70 49 c-38 26 -162 111 -275 189 -363 250 -394 272 -437 303
-119 87 -147 105 -153 98 -3 -4 -4 -33 -1 -63 4 -51 5 -52 11 -20 5 34 7 32
38 -53 46 -126 79 -245 104 -382 l23 -120 0 -1395 c0 -1060 3 -1405 12 -1435
12 -39 21 -84 28 -137 2 -15 6 -32 9 -37 3 -5 -2 -15 -11 -22 -13 -11 -17 -11
-20 -1 -3 6 -11 12 -18 12 -17 0 -38 36 -30 50 3 6 -1 10 -10 10 -10 0 -15 -6
-12 -13 2 -6 -1 -18 -8 -24 -10 -10 -14 -9 -19 3 -3 8 -2 13 3 10 11 -7 24 41
15 56 -4 6 -13 -1 -21 -18 -7 -16 -11 -21 -8 -11 3 10 1 15 -5 12 -6 -3 -10
-2 -10 4 0 5 5 13 10 16 6 4 8 11 5 16 -4 5 -1 9 4 9 6 0 11 5 11 11 0 8 -4 8
-13 1 -8 -7 -18 -7 -27 -2 -8 6 -10 10 -4 10 6 0 11 7 11 15 0 9 -6 14 -14 11
-7 -3 -13 1 -13 10 0 11 6 14 16 10 8 -3 12 -2 9 4 -3 6 -13 10 -21 10 -10 0
-12 5 -7 13 12 20 12 37 0 34 -19 -3 -22 82 -3 89 8 3 12 12 9 20 -6 16 -8
103 -18 939 -3 314 -8 575 -10 580 -2 6 -4 -358 -4 -807 -1 -844 -2 -828 37
-953 24 -77 110 -225 150 -257 13 -11 14 -11 7 2 -4 8 3 5 17 -8 13 -12 28
-19 33 -15 4 5 5 2 1 -5 -6 -11 -12 -10 -27 4 -10 9 -19 13 -19 7 0 -17 112
-117 190 -170 92 -61 191 -105 329 -144 125 -35 165 -37 681 -44 380 -5 440
-8 440 -25 0 -32 -364 -273 -545 -360 -336 -162 -629 -234 -1000 -247 -424
-14 -798 68 -1180 257 -724 358 -1239 1024 -1404 1813 -44 211 -55 311 -55
527 -1 356 63 682 195 1004 16 38 27 76 24 84 -2 7 -1 11 3 8 11 -7 104 183
96 196 -4 6 -3 8 4 5 12 -8 66 79 57 93 -4 6 -1 9 7 8 7 -2 12 5 11 15 0 10 2
16 5 13 9 -10 34 33 26 46 -4 6 -3 8 3 5 6 -4 34 25 62 63 53 73 60 86 39 74
-8 -4 -10 -3 -5 2 5 5 12 9 15 9 13 0 32 16 32 26 0 6 -6 7 -12 3 -9 -5 -9 -3
1 9 7 9 17 15 21 12 10 -6 41 29 44 52 2 10 6 16 9 13 8 -6 237 221 232 230
-3 4 8 18 23 31 14 13 20 16 13 7 -7 -10 -9 -18 -4 -18 12 0 51 41 53 55 1 6
4 12 7 15 4 3 3 -1 -1 -7 -4 -7 -3 -13 2 -13 12 0 33 25 27 32 -3 3 3 11 12
19 16 13 17 12 4 -3 -7 -10 -9 -18 -3 -18 12 0 34 25 27 32 -3 3 3 11 12 19
16 13 17 12 4 -3 -8 -11 -9 -18 -3 -18 11 0 27 19 27 32 0 3 4 10 9 15 5 5 6
3 2 -4 -11 -20 2 -15 50 18 24 16 42 34 39 40 -3 5 0 7 7 4 16 -6 124 58 121
72 -1 5 8 9 20 9 12 -1 22 4 22 11 0 6 4 15 9 20 5 5 6 3 2 -4 -11 -20 7 -16
58 13 25 14 44 30 41 35 -4 5 0 6 8 4 7 -3 51 11 98 31 138 59 323 122 429
144 168 36 347 60 489 66 l161 7 0 394 c0 216 -2 393 -5 393 -3 0 -5 -146 -5
-324z m-3 -448 c-3 -8 -6 -5 -6 6 -1 11 2 17 5 13 3 -3 4 -12 1 -19z m-249
-15 c-10 -2 -26 -2 -35 0 -10 3 -2 5 17 5 19 0 27 -2 18 -5z m-95 -10 c-7 -2
-21 -2 -30 0 -10 3 -4 5 12 5 17 0 24 -2 18 -5z m-80 -10 c-7 -2 -19 -2 -25 0
-7 3 -2 5 12 5 14 0 19 -2 13 -5z m-60 -10 c-7 -2 -19 -2 -25 0 -7 3 -2 5 12
5 14 0 19 -2 13 -5z m-146 -29 c-3 -3 -12 -4 -19 -1 -8 3 -5 6 6 6 11 1 17 -2
13 -5z m-40 -10 c-3 -3 -12 -4 -19 -1 -8 3 -5 6 6 6 11 1 17 -2 13 -5z m587
-527 c79 -64 493 -379 567 -431 21 -15 22 -19 20 -233 -1 -120 -7 -272 -12
-338 -6 -66 -11 -137 -11 -157 0 -21 -4 -38 -9 -38 -8 0 -15 108 -10 147 1 6
-3 14 -9 18 -5 3 -10 27 -11 53 0 35 -3 42 -9 27 -6 -14 -9 -16 -10 -5 -2 8
-2 18 -2 21 1 3 -9 6 -21 5 -13 -1 -21 -7 -19 -16 2 -10 0 -11 -11 -2 -8 7
-18 8 -22 4 -5 -4 -6 0 -2 9 5 15 1 15 -36 5 -50 -14 -95 -11 -126 8 -10 6
-12 5 -7 -3 12 -19 -11 -38 -41 -35 -16 1 -29 3 -30 4 -2 1 -6 3 -10 5 -5 1
-16 5 -27 10 -12 5 -21 3 -27 -6 -7 -11 -9 -11 -9 -1 0 7 -4 10 -10 7 -5 -3
-10 -1 -10 4 0 6 -20 11 -45 11 l-45 0 -2 -52 -1 -53 -7 65 c-4 36 -8 150 -9
253 -3 266 -25 430 -86 632 -20 65 -42 134 -50 153 -25 57 -19 67 19 35 19
-15 77 -63 130 -106z m-1704 -70 c0 -2 -17 -19 -37 -38 l-38 -34 34 38 c33 34
41 42 41 34z m-80 -81 c0 -2 -8 -10 -17 -17 -16 -13 -17 -12 -4 4 13 16 21 21
21 13z m3686 -48 l29 -33 -32 29 c-31 28 -38 36 -30 36 2 0 16 -15 33 -32z
m462 -703 c-3 -3 -9 2 -12 12 -6 14 -5 15 5 6 7 -7 10 -15 7 -18z m-1873 -44
c3 -5 2 -12 -3 -15 -5 -3 -9 1 -9 9 0 17 3 19 12 6z m1945 -126 c0 -5 -5 -3
-10 5 -5 8 -10 20 -10 25 0 6 5 3 10 -5 5 -8 10 -19 10 -25z m29 -85 c0 -10
-3 -8 -9 5 -12 27 -12 43 0 25 5 -8 9 -22 9 -30z m20 -60 c0 -10 -3 -8 -9 5
-12 27 -12 43 0 25 5 -8 9 -22 9 -30z m143 -55 c3 -13 2 -22 -2 -20 -11 7 -20
45 -10 45 4 0 10 -11 12 -25z m-112 -5 c-6 -4 -9 -19 -5 -36 5 -27 5 -28 -5
-5 -12 27 -4 65 12 55 7 -4 6 -9 -2 -14z m85 -7 c-2 -10 -4 -19 -4 -21 -1 -2
-6 0 -11 3 -8 5 -7 11 1 21 15 18 18 18 14 -3z m-60 -43 c3 -5 1 -10 -4 -10
-6 0 -11 5 -11 10 0 6 2 10 4 10 3 0 8 -4 11 -10z m36 -23 c-6 -8 -7 -18 -3
-22 4 -5 1 -5 -6 -1 -10 6 -10 11 -1 22 6 8 14 14 16 14 3 0 0 -6 -6 -13z
m-1980 -1150 c9 -215 21 -279 83 -452 5 -13 2 -11 -8 5 -24 39 -64 169 -75
240 -13 89 -25 407 -15 397 4 -4 11 -90 15 -190z m-2991 -797 c0 -5 -2 -10 -4
-10 -3 0 -8 5 -11 10 -3 6 -1 10 4 10 6 0 11 -4 11 -10z m-4 -102 c4 -7 3 -8
-4 -4 -7 4 -12 2 -12 -5 0 -7 -3 -10 -6 -6 -6 5 3 27 11 27 2 0 7 -5 11 -12z
m21 -50 c-3 -7 -5 -2 -5 12 0 14 2 19 5 13 2 -7 2 -19 0 -25z m2309 -19 c-5
-26 -4 -29 8 -20 10 9 13 7 13 -11 0 -32 13 -59 26 -51 6 3 7 1 3 -5 -3 -6 2
-16 11 -22 12 -7 13 -10 3 -7 -8 2 -32 27 -52 57 -30 42 -35 56 -27 71 15 29
22 23 15 -12z m-2329 -51 c-3 -8 -6 -5 -6 6 -1 11 2 17 5 13 3 -3 4 -12 1 -19z
m-60 -65 c-2 -16 -4 -5 -4 22 0 28 2 40 4 28 2 -13 2 -35 0 -50z m22 -177 c-3
-11 -11 -21 -18 -22 -6 -1 -7 0 -2 2 7 4 6 10 -2 19 -7 7 -16 10 -22 7 -5 -2
-4 1 3 9 11 12 14 12 22 -1 8 -12 10 -10 10 8 0 12 -4 22 -10 22 -5 0 -10 15
-9 33 0 27 2 29 9 12 8 -18 9 -16 11 10 1 18 5 9 8 -25 4 -30 4 -64 0 -74z
m2555 102 c1 -2 8 -12 16 -23 14 -19 14 -19 -4 -5 -10 8 -31 20 -45 27 l-26
12 29 -4 c16 -2 29 -5 30 -7z m-2516 -33 c-3 -3 -9 2 -12 12 -6 14 -5 15 5 6
7 -7 10 -15 7 -18z m-35 -202 c-3 -7 -9 -13 -14 -13 -5 0 -9 -4 -9 -9 0 -6 9
-8 19 -6 11 2 26 -4 33 -13 11 -13 11 -14 -2 -7 -24 15 -38 14 -44 -2 -3 -7
-2 -12 3 -9 5 3 11 -3 14 -14 4 -16 2 -17 -14 -7 -10 6 -19 16 -19 22 0 5 -5
3 -10 -5 -8 -13 -10 -12 -10 3 0 9 4 17 9 17 5 0 15 33 22 73 l14 72 6 -45 c3
-25 4 -51 2 -57z m3010 50 c-7 -2 -19 -2 -25 0 -7 3 -2 5 12 5 14 0 19 -2 13
-5z m-2949 -11 c3 -5 -1 -9 -9 -9 -8 0 -12 4 -9 9 3 4 7 8 9 8 2 0 6 -4 9 -8z
m3441 -11 l340 -6 -196 -7 c-192 -8 -461 3 -565 22 -44 8 -42 9 16 3 36 -3
218 -9 405 -12z m925 -2 c0 -10 -65 -79 -76 -79 -2 0 0 9 6 19 9 18 8 19 -22
10 -42 -12 -42 -12 -24 6 20 20 82 46 90 38 3 -4 6 -1 6 5 0 7 5 12 10 12 6 0
10 -5 10 -11z m-4333 -24 c0 -8 -4 -12 -9 -9 -5 3 -6 10 -3 15 9 13 12 11 12
-6z m488 -85 c38 -38 67 -70 64 -70 -2 0 -36 32 -74 70 -38 39 -67 70 -64 70
2 0 36 -31 74 -70z m3729 -11 c-17 -16 -39 -32 -50 -33 -10 -2 -18 -9 -16 -16
1 -6 -2 -9 -8 -5 -8 5 -8 11 1 21 6 7 15 12 19 9 5 -3 23 8 41 25 43 39 52 39
13 -1z m-4337 -11 c-3 -8 -6 -5 -6 6 -1 11 2 17 5 13 3 -3 4 -12 1 -19z m4183
18 c0 -2 -8 -10 -17 -17 -16 -13 -17 -12 -4 4 13 16 21 21 21 13z m-4150 -26
c0 -5 -5 -10 -11 -10 -5 0 -7 5 -4 10 3 6 8 10 11 10 2 0 4 -4 4 -10z m4180
-35 c-11 -22 -20 -33 -20 -26 0 14 32 72 37 68 1 -2 -6 -21 -17 -42z m-27 4
c-6 -6 -9 -17 -7 -24 3 -6 -2 -18 -11 -25 -10 -8 -15 -9 -15 -1 0 6 -5 11 -11
11 -5 0 -7 -5 -3 -12 4 -7 3 -8 -4 -4 -21 13 -13 34 11 30 12 -2 16 -2 10 2
-22 10 -15 33 7 27 12 -3 20 0 20 8 0 7 3 9 7 6 4 -4 2 -12 -4 -18z m-4047
-45 c1 -9 0 -13 -4 -10 -3 4 -7 14 -8 22 -1 9 0 13 4 10 3 -4 7 -14 8 -22z
m3872 -149 c-3 -3 -9 2 -12 12 -6 14 -5 15 5 6 7 -7 10 -15 7 -18z m-3617
-472 c13 -16 12 -17 -3 -4 -17 13 -22 21 -14 21 2 0 10 -8 17 -17z m50 -40
c13 -16 12 -17 -3 -4 -17 13 -22 21 -14 21 2 0 10 -8 17 -17z m110 -80 c13
-16 12 -17 -3 -4 -17 13 -22 21 -14 21 2 0 10 -8 17 -17z m1016 -489 c-3 -3
-12 -4 -19 -1 -8 3 -5 6 6 6 11 1 17 -2 13 -5z m200 -50 c-3 -3 -12 -4 -19 -1
-8 3 -5 6 6 6 11 1 17 -2 13 -5z m40 -10 c-3 -3 -12 -4 -19 -1 -8 3 -5 6 6 6
11 1 17 -2 13 -5z"/>
<path d="M5256 6291 c-3 -4 0 -8 7 -8 7 0 24 -3 39 -6 15 -3 30 -2 33 3 3 4
-3 7 -12 6 -10 -2 -28 0 -40 5 -12 5 -25 5 -27 0z"/>
<path d="M3583 8300 c-18 -11 -33 -22 -33 -25 0 -2 16 5 35 16 19 12 35 23 35
25 0 6 -3 5 -37 -16z"/>
<path d="M3425 8212 c-270 -156 -481 -317 -703 -536 -204 -201 -381 -424 -532
-671 -74 -120 -196 -374 -248 -515 -70 -189 -133 -400 -131 -438 0 -9 9 15 18
53 30 114 80 273 126 392 52 133 173 383 187 383 5 0 6 5 3 10 -3 6 -1 10 5
10 6 0 9 4 6 9 -6 8 49 101 66 112 5 3 10 10 10 15 1 19 11 34 19 28 5 -3 6 3
2 12 -5 13 -3 15 7 9 9 -5 11 -4 6 3 -4 7 -2 12 4 12 6 0 9 4 5 9 -3 6 4 15
15 21 11 6 18 14 16 19 -7 11 29 62 39 54 4 -5 5 -3 2 3 -4 7 8 27 25 45 18
19 33 36 33 39 6 23 19 39 28 33 5 -3 7 -2 4 4 -8 12 108 155 117 145 4 -4 6
-2 4 5 -4 16 164 196 281 301 173 153 407 321 621 443 46 27 80 49 74 49 -5 0
-54 -26 -109 -58z"/>
<path d="M1800 6028 c0 -3 -7 -43 -16 -88 -8 -45 -13 -87 -12 -92 2 -6 12 31
21 82 9 52 15 96 12 98 -3 3 -5 3 -5 0z"/>
<path d="M7686 5871 c-4 -5 -2 -12 3 -15 5 -4 12 -2 15 3 4 5 2 12 -3 15 -5 4
-12 2 -15 -3z"/>
<path d="M1762 5800 c0 -14 2 -19 5 -12 2 6 2 18 0 25 -3 6 -5 1 -5 -13z"/>
<path d="M7613 5768 c38 -212 48 -302 56 -525 4 -130 11 -197 19 -205 9 -9 12
0 12 45 0 31 -4 57 -10 57 -6 0 -10 37 -9 93 0 63 3 86 9 72 6 -13 9 18 8 90
0 61 2 120 5 133 4 16 1 22 -11 23 -10 0 -12 3 -4 6 6 2 12 12 12 21 0 13 -2
14 -9 3 -6 -9 -11 -10 -15 -2 -4 6 -12 9 -17 6 -5 -4 -9 2 -9 12 0 10 9 24 21
31 17 11 18 16 8 28 -12 14 -14 14 -26 -2 -12 -16 -13 -15 -13 10 0 21 4 27
15 23 8 -4 17 -2 20 4 4 5 1 8 -6 7 -7 -2 -13 4 -14 12 -1 8 -6 14 -13 13 -7
-2 -12 4 -12 13 0 8 5 12 10 9 6 -3 10 1 10 11 0 14 -2 15 -17 3 -15 -13 -16
-11 -11 14 3 15 1 27 -5 27 -5 0 -7 -14 -4 -32z m62 -117 c3 -5 2 -12 -3 -15
-5 -3 -9 1 -9 9 0 17 3 19 12 6z m8 -114 c9 5 9 3 1 -8 -6 -8 -14 -21 -17 -29
-3 -8 -5 5 -5 30 0 25 3 35 5 22 3 -14 9 -20 16 -15z m-6 -129 c-2 -13 -4 -3
-4 22 0 25 2 35 4 23 2 -13 2 -33 0 -45z"/>
<path d="M7661 5774 c0 -11 3 -14 6 -6 3 7 2 16 -1 19 -3 4 -6 -2 -5 -13z"/>
<path d="M1753 5735 c0 -22 2 -30 4 -17 2 12 2 30 0 40 -3 9 -5 -1 -4 -23z"/>
<path d="M1742 5650 c0 -19 2 -27 5 -17 2 9 2 25 0 35 -3 9 -5 1 -5 -18z"/>
<path d="M1733 5560 c0 -25 2 -35 4 -22 2 12 2 32 0 45 -2 12 -4 2 -4 -23z"/>
<path d="M1723 5430 c0 -25 2 -35 4 -22 2 12 2 32 0 45 -2 12 -4 2 -4 -23z"/>
<path d="M1722 4980 c0 -14 2 -19 5 -12 2 6 2 18 0 25 -3 6 -5 1 -5 -13z"/>
<path d="M1732 4870 c0 -14 2 -19 5 -12 2 6 2 18 0 25 -3 6 -5 1 -5 -13z"/>
<path d="M1741 4784 c0 -11 3 -14 6 -6 3 7 2 16 -1 19 -3 4 -6 -2 -5 -13z"/>
<path d="M1751 4714 c0 -11 3 -14 6 -6 3 7 2 16 -1 19 -3 4 -6 -2 -5 -13z"/>
<path d="M1930 4005 c0 -5 4 -16 9 -23 6 -11 10 -10 15 4 3 9 4 19 1 22 -3 3
-5 -1 -5 -9 0 -11 -2 -11 -10 1 -5 8 -10 11 -10 5z"/>
<path d="M1950 3953 c0 -15 18 -35 23 -27 3 5 -1 15 -9 22 -8 7 -14 9 -14 5z"/>
<path d="M1984 3879 c-9 -16 198 -425 214 -421 8 1 11 -2 7 -8 -9 -15 43 -98
60 -96 9 1 21 8 28 15 10 10 3 20 -31 49 -23 20 -42 43 -42 51 0 7 -6 11 -15
7 -19 -7 -41 29 -24 40 8 4 2 12 -15 21 -14 7 -26 19 -26 26 0 8 3 8 9 -2 5
-8 11 -9 15 -3 3 5 -1 13 -10 16 -9 3 -14 13 -11 20 3 8 -1 17 -10 20 -8 4
-13 13 -9 21 3 8 1 15 -5 15 -5 0 -14 12 -19 26 -6 14 -14 22 -20 19 -14 -9
-13 8 2 23 9 9 9 12 -2 13 -8 1 -19 1 -23 0 -5 -1 -6 8 -2 19 4 13 1 22 -9 26
-9 3 -12 12 -9 21 4 10 2 14 -4 10 -16 -10 -26 25 -11 36 10 6 9 7 -4 4 -17
-6 -33 18 -22 34 3 5 3 9 0 9 -3 0 -8 -5 -12 -11z m124 -244 c-3 -3 -9 2 -12
12 -6 14 -5 15 5 6 7 -7 10 -15 7 -18z m20 -40 c-3 -3 -9 2 -12 12 -6 14 -5
15 5 6 7 -7 10 -15 7 -18z m132 -190 c5 3 12 1 15 -5 4 -6 1 -9 -7 -8 -7 2
-12 -3 -10 -10 1 -8 -2 -11 -8 -7 -6 3 -8 11 -5 16 4 5 2 9 -4 9 -6 0 -16 10
-22 23 l-11 22 21 -23 c12 -12 26 -20 31 -17z"/>
<path d="M2582 3590 c0 -14 2 -19 5 -12 2 6 2 18 0 25 -3 6 -5 1 -5 -13z"/>
<path d="M2193 3512 c-7 -4 -9 -13 -4 -21 6 -9 11 -10 15 -2 4 6 13 8 19 4 7
-4 6 0 -2 10 -7 9 -14 17 -15 17 0 0 -6 -4 -13 -8z"/>
<path d="M2582 3370 c0 -14 2 -19 5 -12 2 6 2 18 0 25 -3 6 -5 1 -5 -13z"/>
<path d="M2290 3350 c-8 -5 -18 -6 -23 -3 -5 3 -8 0 -5 -7 5 -16 30 -21 49 -9
9 5 10 12 4 18 -6 6 -16 7 -25 1z"/>
<path d="M2583 3325 c0 -8 4 -12 9 -9 5 3 6 10 3 15 -9 13 -12 11 -12 -6z"/>
<path d="M2554 3209 c0 -11 5 -18 10 -16 16 5 18 24 4 30 -9 3 -14 -3 -14 -14z"/>
<path d="M2740 2756 c0 -11 30 -39 36 -34 2 3 -5 13 -16 23 -11 10 -20 15 -20
11z"/>
</g>
</svg>
